<svg width="101" height="56" viewBox="0 0 101 56" fill="none" xmlns="http://www.w3.org/2000/svg">
<g id="cards">
<g id="card-1">
<g id="Rectangle 9" filter="url(#filter0_d_71_73)">
<rect y="22.9118" width="36.9546" height="36.9546" rx="4" transform="rotate(-30 0 22.9118)" fill="url(#paint0_linear_71_73)"/>
<rect x="1.36603" y="23.2779" width="34.9546" height="34.9546" rx="3" transform="rotate(-30 1.36603 23.2779)" stroke="#FFCE31" stroke-width="2"/>
</g>
<g id="&#240;&#159;&#166;&#134; emoji &#34;crown&#34;">
<path id="Vector" d="M32.8195 29.1843C32.8208 29.1865 32.8176 29.1885 32.816 29.1865C30.7949 26.6339 27.227 25.8643 24.4068 27.4925C22.9746 28.3194 21.9815 29.6225 21.5061 31.0979C20.7589 33.4169 23.5542 34.5313 25.6641 33.3131L32.8167 29.1835C32.8177 29.1829 32.819 29.1833 32.8195 29.1843V29.1843Z" fill="#428BC1"/>
<path id="Vector_2" d="M32.1275 22.5012C31.7435 22.0825 31.2343 21.8784 30.6687 21.8848C30.4203 21.8859 30.176 21.9557 29.9471 22.0523C29.7449 22.1335 29.5735 22.268 29.4176 22.4292C29.1436 22.6941 28.9158 23.0391 28.6993 23.342C28.5671 23.5309 28.4404 23.7166 28.3092 23.8819C28.0659 24.1885 27.9529 24.6374 28.1486 24.9764V24.9764C28.3443 25.3153 28.7833 25.4326 29.0629 25.1587C29.3856 24.8426 29.6392 24.4694 29.8646 24.1279C30.233 23.5951 30.4607 23.2501 30.7092 23.249C30.8888 23.252 31.0305 23.3125 31.1342 23.4305C31.2533 23.5752 31.3766 23.7887 31.4618 24.0597C31.5625 24.3573 31.5986 24.7279 31.6388 25.1672C31.7037 26.0192 31.6465 26.9061 31.6036 27.5713C31.6046 27.7905 31.5936 27.9889 31.5783 28.1376C31.5744 28.1754 31.5731 28.2135 31.5754 28.2514L31.5836 28.3871C31.5841 28.3961 31.5883 28.406 31.5892 28.4149V28.4149C31.5924 28.4466 31.5662 28.4824 31.5386 28.4983L21.7653 34.1409C21.7377 34.1568 21.6936 34.1617 21.6678 34.143V34.143C21.6605 34.1378 21.654 34.1292 21.6465 34.1243L21.4854 34.0179C21.3283 33.9307 21.1291 33.8322 20.93 33.7337C20.3324 33.4383 19.5358 33.0443 18.8304 32.5621C18.47 32.3077 18.1938 32.0758 17.9597 31.8551C17.8747 31.7584 17.7993 31.6681 17.7384 31.5838C17.5952 31.3859 17.5022 31.126 17.5878 30.8971C17.6001 30.8643 17.6155 30.8312 17.634 30.7979C17.7591 30.5834 18.1564 30.5319 18.8174 30.506C19.2299 30.4813 19.673 30.4547 20.1122 30.3302C20.4888 30.2236 20.6059 29.7831 20.4102 29.4441V29.4441C20.2145 29.1052 19.7692 28.9786 19.382 29.036C19.1733 29.067 18.9491 29.0838 18.7195 29.1039C18.3335 29.1132 17.9362 29.1647 17.5698 29.2695C17.2989 29.3548 17.0967 29.4359 16.9253 29.5705C16.7272 29.7204 16.5445 29.897 16.4194 30.1116C16.1311 30.5983 16.0687 31.168 16.2238 31.6832C16.4447 32.374 17.0249 33.0708 18.0599 33.7541C18.8227 34.2743 19.6769 34.7062 20.3165 35.0129C20.5157 35.1114 20.7149 35.2099 20.8299 35.2858V35.2858C20.9538 35.3676 21.097 35.4158 21.2277 35.4865C21.2976 35.5243 21.3623 35.5619 21.4226 35.6008C21.6357 35.738 21.7831 35.9508 21.9098 36.1703L23.3234 38.6188C23.3988 38.7493 23.3435 38.9618 23.4189 39.0923V39.0923C23.4651 39.1723 23.5647 39.2216 23.6448 39.1753L34.9321 32.6586C35.0122 32.6124 35.0347 32.5282 34.9731 32.4214V32.4214C34.8995 32.2939 34.6875 32.235 34.6139 32.1074L33.2866 29.8085C33.1115 29.5051 32.9874 29.1725 32.9778 28.8223C32.9753 28.7287 32.974 28.6304 32.9722 28.5245V28.5245C32.9634 28.3768 32.9813 28.2273 32.9868 28.0795C32.9909 27.9701 32.9989 27.8459 33.0069 27.7217C33.0344 27.0299 33.0874 26.0742 33.0451 25.138C32.9441 23.9155 32.6307 23.0646 32.1275 22.5012Z" fill="#F2B200"/>
<path id="Vector_3" d="M25.0784 28.101C25.4584 28.4509 25.161 29.4765 24.3853 30.3513C23.6249 31.2528 22.6714 31.6966 22.2648 31.362C21.8849 31.0121 22.1823 29.9866 22.958 29.1117C23.7338 28.2369 24.6718 27.7665 25.0784 28.101Z" fill="#42ADE2"/>
<path id="Vector_4" d="M27.2482 33.8928C27.044 33.5391 27.1651 33.0869 27.5188 32.8827V32.8827C27.8725 32.6785 28.3248 32.7996 28.529 33.1533L29.4534 34.7544C29.6576 35.1081 29.5364 35.5603 29.1827 35.7645V35.7645C28.829 35.9688 28.3767 35.8476 28.1725 35.4939L27.2482 33.8928Z" fill="#FFDD7D"/>
<path id="Vector_5" d="M29.4363 32.6295C29.2321 32.2758 29.3533 31.8236 29.7069 31.6194V31.6194C30.0606 31.4152 30.5129 31.5364 30.7171 31.8901L31.6415 33.4911C31.8457 33.8448 31.7245 34.2971 31.3708 34.5013V34.5013C31.0171 34.7055 30.5648 34.5843 30.3606 34.2306L29.4363 32.6295Z" fill="#FFCE31"/>
<path id="Vector_6" d="M28.4212 32.9666C28.2766 32.716 28.3624 32.3957 28.6129 32.251V32.251C28.8635 32.1064 29.1838 32.1922 29.3285 32.4428L30.4685 34.4174C30.6132 34.6679 30.5273 34.9883 30.2768 35.1329V35.1329C30.0263 35.2776 29.7059 35.1917 29.5613 34.9412L28.4212 32.9666Z" fill="white"/>
<path id="Vector_7" d="M31.5165 31.1794C31.3719 30.9289 31.4577 30.6086 31.7083 30.4639V30.4639C31.9588 30.3193 32.2792 30.4051 32.4238 30.6556L33.5639 32.6303C33.7085 32.8808 33.6227 33.2011 33.3721 33.3458V33.3458C33.1216 33.4904 32.8012 33.4046 32.6566 33.1541L31.5165 31.1794Z" fill="#FFCE31"/>
<path id="Vector_8" d="M22.1237 36.6024C21.9791 36.3519 22.0649 36.0315 22.3154 35.8869V35.8869C22.566 35.7422 22.8863 35.828 23.031 36.0786L24.171 38.0532C24.3157 38.3037 24.2298 38.6241 23.9793 38.7687V38.7687C23.7288 38.9134 23.4084 38.8275 23.2638 38.577L22.1237 36.6024Z" fill="#F2B200"/>
<path id="Vector_9" d="M23.3843 36.4439C23.1035 35.9576 23.2701 35.3357 23.7564 35.0549V35.0549C24.2428 34.7741 24.8646 34.9408 25.1454 35.4271L25.7925 36.5478C26.0732 37.0342 25.9066 37.656 25.4203 37.9368V37.9368C24.934 38.2176 24.3121 38.051 24.0313 37.5646L23.3843 36.4439Z" fill="#FFCE31"/>
<path id="Vector_10" d="M25.0638 30.8489V30.8489C25.5158 31.6319 24.0749 32.4638 23.6229 31.6809V31.6809C23.3918 31.2806 23.5271 30.7755 23.9274 30.5444C24.3276 30.3133 24.8327 30.4487 25.0638 30.8489ZM28.3993 28.9232V28.9232C28.8514 29.7061 27.4104 30.538 26.9584 29.7551V29.7551C26.7273 29.3548 26.8626 28.8498 27.2629 28.6187C27.6632 28.3876 28.1682 28.5229 28.3993 28.9232Z" fill="#F2B200"/>
<path id="Vector_11" d="M23.037 22.7784C23.5607 23.0311 23.588 23.7669 23.0844 24.0577L22.052 24.6537C21.5568 24.9396 20.9411 24.5657 20.9666 23.9944V23.9944C20.9776 23.7475 21.1138 23.5232 21.3279 23.3996L22.3603 22.8035C22.5678 22.6837 22.8212 22.6743 23.037 22.7784V22.7784Z" fill="#66CAF2"/>
<path id="Vector_12" d="M21.8175 31.9464C21.2781 32.4643 20.7626 31.9153 21.2976 31.3928V31.3928C21.8389 30.8641 22.3633 31.4223 21.8175 31.9464V31.9464ZM29.3717 26.7251C30.0998 26.5168 30.3095 27.2497 29.5813 27.458V27.458C28.8532 27.6663 28.6435 26.9334 29.3717 26.7251V26.7251ZM25.491 29.348C24.8281 29.7341 24.4225 29.0545 25.0883 28.6734V28.6734C25.7485 28.2955 26.1484 28.9653 25.491 29.348V29.348Z" fill="#FFCE31"/>
<path id="Vector_13" d="M22.5265 22.7076C22.3248 22.8241 22.2842 23.0981 22.4436 23.268L22.8877 23.7414C23.0409 23.9047 23.2865 23.941 23.4805 23.829V23.829C23.8159 23.6354 23.7977 23.1453 23.4489 22.9771L22.8643 22.6951C22.7566 22.6431 22.6301 22.6478 22.5265 22.7076V22.7076Z" fill="#428BC1"/>
<path id="Vector_14" d="M22.3587 23.1776C22.2257 23.0358 22.0126 23.0043 21.8442 23.1015V23.1015C21.6703 23.2019 21.5923 23.4116 21.6582 23.6013L21.8206 24.0688C21.9285 24.3794 22.2925 24.5149 22.5772 24.3505V24.3505C22.8695 24.1817 22.9283 23.7847 22.6973 23.5385L22.3587 23.1776Z" fill="#42ADE2"/>
<path id="Vector_15" d="M21.159 23.4971C21.3591 23.3816 21.6149 23.4768 21.6908 23.6951L21.8961 24.2861C21.973 24.5073 21.8819 24.7519 21.6791 24.869V24.869C21.3453 25.0618 20.9303 24.8097 20.9474 24.4246L20.9753 23.7996C20.9809 23.674 21.0501 23.56 21.159 23.4971V23.4971Z" fill="#66CAF2"/>
<path id="Vector_16" d="M27.1645 32.269C26.6617 32.5495 26.481 32.2366 26.9796 31.9487V31.9487V31.9487C27.4783 31.6609 27.6632 31.9811 27.1645 32.269V32.269V32.269Z" fill="#FFDD7D"/>
<g id="Group">
<path id="Vector_17" d="M21.9465 36.2955C21.8998 36.2145 21.9275 36.1108 22.0086 36.064L33.0024 29.7167C33.0835 29.6699 33.1871 29.6977 33.2339 29.7788V29.7788C33.2807 29.8598 33.2529 29.9635 33.1719 30.0102L22.178 36.3575C22.097 36.4043 21.9933 36.3766 21.9465 36.2955V36.2955Z" fill="#428BC1"/>
<path id="Vector_18" d="M22.0313 36.4423C22.105 36.3997 22.1233 36.2936 22.0723 36.2052C22.0212 36.1167 21.9201 36.0795 21.8464 36.1221C21.7727 36.1646 21.7544 36.2708 21.8054 36.3592C21.8565 36.4476 21.9576 36.4848 22.0313 36.4423Z" fill="#428BC1"/>
<path id="Vector_19" d="M33.3454 29.9101C33.4191 29.8676 33.4374 29.7614 33.3864 29.673C33.3353 29.5846 33.2342 29.5474 33.1605 29.5899C33.0868 29.6324 33.0685 29.7386 33.1195 29.827C33.1706 29.9155 33.2717 29.9527 33.3454 29.9101Z" fill="#428BC1"/>
</g>
<path id="Vector_20" d="M28.7806 23.5442C28.531 23.2969 28.2702 23.0917 27.9448 22.9593C27.6193 22.827 27.2826 22.7368 26.8967 22.7462C26.6216 22.7627 26.3619 22.8059 26.1063 22.9178C25.9041 22.999 25.7061 23.1489 25.5234 23.3256C25.2249 23.6039 24.9871 23.9874 24.7346 24.3456C24.731 24.3508 24.7283 24.3553 24.7254 24.3609V24.3609C24.6718 24.4642 24.4944 24.4098 24.4803 24.2943C24.4518 24.0595 24.41 23.8468 24.3556 23.6695C24.3016 23.4933 24.0985 23.4366 23.9389 23.5288L21.1815 25.1208C21.0219 25.2129 20.9694 25.4171 21.095 25.552C21.2198 25.686 21.3805 25.8267 21.5666 25.967C21.6618 26.0388 21.6195 26.2103 21.5004 26.2175V26.2175C21.0611 26.2576 20.6064 26.2711 20.2133 26.3914C19.969 26.4612 19.7401 26.5578 19.5687 26.6923C19.344 26.8577 19.1613 27.0343 19.0249 27.291C18.8505 27.6051 18.7335 27.9572 18.6854 28.3052C18.664 28.6378 18.6846 28.9817 18.774 29.3215C19.034 30.2031 19.7108 31.1288 20.8002 32.0297C21.4331 32.5715 22.074 32.9885 22.5248 33.2753C22.7582 33.4237 23.0563 33.4312 23.2959 33.2928L23.9484 32.9161C24.1188 32.8177 24.1118 32.598 23.9476 32.4896V32.4896C23.8901 32.4517 23.8059 32.4291 23.7484 32.3912C22.6642 31.8074 20.5173 30.3074 20.133 28.9638C20.0436 28.6241 20.0537 28.3336 20.2436 28.0461C20.2928 27.9465 20.3841 27.8582 20.6551 27.7729C20.9261 27.6876 21.2699 27.667 21.6559 27.6576V27.6576C22.7347 27.618 23.9013 28.0342 24.4411 28.9691L25.6958 31.1423C25.8872 31.4739 26.3112 31.5875 26.6428 31.3961V31.3961C26.9744 31.2046 27.088 30.7806 26.8966 30.449L25.6559 28.3001C25.1081 27.3513 25.3217 26.1069 25.9254 25.1926V25.1926C26.1418 24.8897 26.3163 24.5756 26.5256 24.3836C26.7349 24.1915 26.8571 24.1566 26.9679 24.1637C27.2851 24.1585 27.5685 24.2795 27.818 24.5268C28.7894 25.5315 28.9996 28.1141 28.9785 29.3716C28.9822 29.433 28.9646 29.5066 28.9637 29.5707C28.9635 29.5857 28.963 29.6024 28.9615 29.6174V29.6174C28.9423 29.803 29.1524 29.9116 29.3139 29.8183L30.0135 29.4144C30.2391 29.2842 30.3822 29.0464 30.3745 28.786C30.3588 28.253 30.2949 27.4707 30.1396 26.6376C29.8774 25.2591 29.4141 24.2102 28.7806 23.5442Z" fill="#FFCE31"/>
<path id="Vector_21" d="M23.2822 25.5445V25.5445C22.827 25.8073 22.6377 26.3829 23.1565 26.2984C23.3146 26.2727 23.4717 26.2179 23.6211 26.1316C23.7647 26.0487 23.8878 25.9415 23.988 25.8175C24.3046 25.4262 23.7181 25.2929 23.2822 25.5445V25.5445Z" fill="#F2B200"/>
</g>
</g>
<g id="card-2">
<g id="Rectangle 10" filter="url(#filter1_d_71_73)">
<rect x="18.4773" y="9.56454" width="36.9546" height="36.9546" rx="4" transform="rotate(-15 18.4773 9.56454)" fill="url(#paint1_linear_71_73)"/>
<rect x="19.702" y="10.2717" width="34.9546" height="34.9546" rx="3" transform="rotate(-15 19.702 10.2717)" stroke="#FFCE31" stroke-width="2"/>
</g>
<g id="&#240;&#159;&#166;&#134; emoji &#34;glowing star&#34;">
<path id="Vector_22" d="M49.5751 17.1091L42.7632 18.9343L38.9774 13.2535L38.5393 20.0661L31.7274 21.8913L38.2666 24.2838L37.8284 31.0964L42.325 25.7469L48.8642 28.1394L45.0784 22.4586L49.5751 17.1091Z" fill="#FFCE31"/>
<path id="Vector_23" d="M44.6599 17.5653L44.9411 13.8554L42.3917 16.834L43.1726 17.9638L44.6599 17.5653ZM41.5836 27.8585L43.7597 31.1012L44.0228 27.2049L42.58 26.6988L41.5836 27.8585ZM47.1144 21.371L46.1913 22.4473L47.0498 23.7476L50.887 22.7194L47.1144 21.371ZM37.8108 18.0614L34.1136 16.7566L36.212 19.8289L37.6993 19.4303L37.8108 18.0614ZM35.9893 24.352L33.3963 27.4061L37.2335 26.3779L37.3269 24.8225L35.9893 24.352Z" fill="#FFDF85"/>
</g>
</g>
<g id="card-3">
<g id="Rectangle 11" filter="url(#filter2_d_71_73)">
<rect x="47.2582" y="0.739094" width="36.9546" height="36.9546" rx="4" transform="rotate(15 47.2582 0.739094)" fill="url(#paint2_linear_71_73)"/>
<rect x="47.9653" y="1.96384" width="34.9546" height="34.9546" rx="3" transform="rotate(15 47.9653 1.96384)" stroke="#FFCE31" stroke-width="2"/>
</g>
<g id="&#240;&#159;&#166;&#134; emoji &#34;artist palette&#34;">
<path id="Vector_24" d="M66.5246 22.5995C70.3449 18.8101 65.7431 14.4534 58.0664 15.7432C53.3553 16.5527 48.8472 21.7196 53.3054 28.3965C56.467 33.1322 67.4551 33.8772 68.5707 29.7138C69.8058 25.1042 62.4999 26.5571 66.5246 22.5995ZM66.0216 30.3057C64.9976 30.7963 63.6891 30.4457 63.0477 29.5088C62.4062 28.572 62.5736 27.9475 63.5975 27.4568C64.6214 26.9662 65.93 27.3168 66.5714 28.2537C67.2128 29.1905 67.0158 29.8071 66.0216 30.3057Z" fill="#F6C799"/>
<path id="Vector_25" d="M59.9342 27.6865C59.2036 26.7257 57.7463 26.3353 56.6332 26.802C55.5201 27.2687 55.2172 28.3988 55.9479 29.3595C56.6786 30.3203 58.1358 30.7107 59.2489 30.244C60.3323 29.7693 60.6431 28.6095 59.9342 27.6865Z" fill="#2CAECE"/>
<path id="Vector_26" d="M56.8061 23.1828C55.9225 22.436 54.4748 22.3669 53.53 23.0381C52.5852 23.7092 52.5362 24.8436 53.4198 25.5903C54.3035 26.3371 55.7511 26.4063 56.696 25.7351C57.6408 25.0639 57.6897 23.9295 56.8061 23.1828Z" fill="#FDF516"/>
<path id="Vector_27" d="M57.0687 19.1096C56.3338 18.4027 54.9993 18.2682 54.1458 18.8363C53.2626 19.3965 53.1781 20.4257 53.921 21.1029C54.6559 21.8098 55.9904 21.9443 56.8439 21.3761C57.6974 20.808 57.8037 19.8165 57.0687 19.1096Z" fill="#FF5555"/>
<path id="Vector_28" d="M61.2399 17.1036C60.5347 16.4046 59.2676 16.2563 58.4221 16.7948C57.5766 17.3332 57.4486 18.287 58.1835 18.9939C58.8887 19.6928 60.1558 19.8411 61.0013 19.3027C61.8468 18.7642 61.9531 17.7728 61.2399 17.1036Z" fill="#83BF4F"/>
<path id="Vector_29" d="M66.1751 18.0753C65.6642 17.3647 64.5958 16.9509 63.727 17.1006C62.8879 17.2582 62.5994 17.9778 63.1103 18.6884C63.6211 19.399 64.6895 19.8128 65.5584 19.6631C66.4054 19.4757 66.6562 18.7779 66.1751 18.0753Z" fill="#9156B7"/>
<path id="Vector_30" d="M62.1954 27.3362C61.463 27.8093 58.4567 27.6093 58.4567 27.6093C58.4567 27.6093 59.8657 26.8713 60.8254 25.3116C61.2785 24.5724 62.4383 24.8832 62.8244 25.4648C63.2184 26.0166 62.9278 26.8631 62.1954 27.3362Z" fill="#947151"/>
<path id="Vector_31" d="M70.1312 19.9641C70.4366 20.014 70.8662 20.671 70.8242 20.9466C70.5708 22.2493 63.9906 25.3948 63.9906 25.3948L63.2977 24.4122C63.2977 24.4122 68.7988 19.7027 70.1312 19.9641Z" fill="#666666"/>
<path id="Vector_32" d="M62.2933 25.0675L62.9863 26.05L63.9906 25.3948L63.2976 24.4122L62.2933 25.0675Z" fill="#CCCCCC"/>
</g>
</g>
<g id="card-4">
<g id="Rectangle 12" filter="url(#filter3_d_71_73)">
<rect x="67.9965" y="4.43455" width="36.9546" height="36.9546" rx="4" transform="rotate(30 67.9965 4.43455)" fill="url(#paint3_linear_71_73)"/>
<rect x="68.3625" y="5.80058" width="34.9546" height="34.9546" rx="3" transform="rotate(30 68.3625 5.80058)" stroke="#FFCE31" stroke-width="2"/>
</g>
<g id="&#240;&#159;&#166;&#134; emoji &#34;two hearts&#34;">
<path id="Vector_33" d="M74.2284 29.0321C75.7931 27.1234 74.3488 21.7331 69.8624 22.845C64.8553 24.119 66.0661 33.8596 65.8173 34.7838C66.6347 34.971 75.2479 39.6591 78.2337 35.4739C80.9545 31.5628 76.3237 28.1773 74.2284 29.0321ZM86.8863 26.1595C85.8569 23.7498 82.9111 24.9679 82.6837 26.2249C82.2497 24.942 79.2901 24.0876 78.48 26.5389C77.5846 29.2612 82.5074 31.4627 82.8729 31.8161C83.2109 31.4773 87.9607 28.7377 86.8863 26.1595Z" fill="#FF5A79"/>
</g>
</g>
</g>
<defs>
<filter id="filter0_d_71_73" x="1.46338" y="5.89798" width="49.5541" height="49.554" filterUnits="userSpaceOnUse" color-interpolation-filters="sRGB">
<feFlood flood-opacity="0" result="BackgroundImageFix"/>
<feColorMatrix in="SourceAlpha" type="matrix" values="0 0 0 0 0 0 0 0 0 0 0 0 0 0 0 0 0 0 127 0" result="hardAlpha"/>
<feOffset dx="1" dy="1"/>
<feGaussianBlur stdDeviation="0.5"/>
<feComposite in2="hardAlpha" operator="out"/>
<feColorMatrix type="matrix" values="0 0 0 0 0 0 0 0 0 0 0 0 0 0 0 0 0 0 0.1 0"/>
<feBlend mode="normal" in2="BackgroundImageFix" result="effect1_dropShadow_71_73"/>
<feBlend mode="normal" in="SourceGraphic" in2="effect1_dropShadow_71_73" result="shape"/>
</filter>
<filter id="filter1_d_71_73" x="19.3752" y="0.897985" width="45.464" height="45.4639" filterUnits="userSpaceOnUse" color-interpolation-filters="sRGB">
<feFlood flood-opacity="0" result="BackgroundImageFix"/>
<feColorMatrix in="SourceAlpha" type="matrix" values="0 0 0 0 0 0 0 0 0 0 0 0 0 0 0 0 0 0 127 0" result="hardAlpha"/>
<feOffset dx="1" dy="1"/>
<feGaussianBlur stdDeviation="0.5"/>
<feComposite in2="hardAlpha" operator="out"/>
<feColorMatrix type="matrix" values="0 0 0 0 0 0 0 0 0 0 0 0 0 0 0 0 0 0 0.1 0"/>
<feBlend mode="normal" in2="BackgroundImageFix" result="effect1_dropShadow_71_73"/>
<feBlend mode="normal" in="SourceGraphic" in2="effect1_dropShadow_71_73" result="shape"/>
</filter>
<filter id="filter2_d_71_73" x="38.5917" y="1.63708" width="45.4639" height="45.4639" filterUnits="userSpaceOnUse" color-interpolation-filters="sRGB">
<feFlood flood-opacity="0" result="BackgroundImageFix"/>
<feColorMatrix in="SourceAlpha" type="matrix" values="0 0 0 0 0 0 0 0 0 0 0 0 0 0 0 0 0 0 127 0" result="hardAlpha"/>
<feOffset dx="1" dy="1"/>
<feGaussianBlur stdDeviation="0.5"/>
<feComposite in2="hardAlpha" operator="out"/>
<feColorMatrix type="matrix" values="0 0 0 0 0 0 0 0 0 0 0 0 0 0 0 0 0 0 0.1 0"/>
<feBlend mode="normal" in2="BackgroundImageFix" result="effect1_dropShadow_71_73"/>
<feBlend mode="normal" in="SourceGraphic" in2="effect1_dropShadow_71_73" result="shape"/>
</filter>
<filter id="filter3_d_71_73" x="50.9827" y="5.89798" width="49.554" height="49.554" filterUnits="userSpaceOnUse" color-interpolation-filters="sRGB">
<feFlood flood-opacity="0" result="BackgroundImageFix"/>
<feColorMatrix in="SourceAlpha" type="matrix" values="0 0 0 0 0 0 0 0 0 0 0 0 0 0 0 0 0 0 127 0" result="hardAlpha"/>
<feOffset dx="1" dy="1"/>
<feGaussianBlur stdDeviation="0.5"/>
<feComposite in2="hardAlpha" operator="out"/>
<feColorMatrix type="matrix" values="0 0 0 0 0 0 0 0 0 0 0 0 0 0 0 0 0 0 0.1 0"/>
<feBlend mode="normal" in2="BackgroundImageFix" result="effect1_dropShadow_71_73"/>
<feBlend mode="normal" in="SourceGraphic" in2="effect1_dropShadow_71_73" result="shape"/>
</filter>
<linearGradient id="paint0_linear_71_73" x1="0" y1="22.9118" x2="36.9546" y2="59.8664" gradientUnits="userSpaceOnUse">
<stop stop-color="#205EFF"/>
<stop offset="1" stop-color="#133999"/>
</linearGradient>
<linearGradient id="paint1_linear_71_73" x1="18.4773" y1="9.56454" x2="55.4319" y2="46.5191" gradientUnits="userSpaceOnUse">
<stop stop-color="#205EFF"/>
<stop offset="1" stop-color="#133999"/>
</linearGradient>
<linearGradient id="paint2_linear_71_73" x1="47.2582" y1="0.739094" x2="84.2127" y2="37.6937" gradientUnits="userSpaceOnUse">
<stop stop-color="#205EFF"/>
<stop offset="1" stop-color="#133999"/>
</linearGradient>
<linearGradient id="paint3_linear_71_73" x1="67.9965" y1="4.43455" x2="104.951" y2="41.3891" gradientUnits="userSpaceOnUse">
<stop stop-color="#205EFF"/>
<stop offset="1" stop-color="#133999"/>
</linearGradient>
</defs>
</svg>
